<svg xmlns="http://www.w3.org/2000/svg" viewBox="0 0 32 32">
  <path d="M11.5 6L11.1875 6.40625L10 8L3 8L3 26L29 26L29 8L22 8L20.8125 6.40625L20.5 6 Z M 12.5 8L19.5 8L20.6875 9.59375L21 10L27 10L27 24L5 24L5 10L11 10L11.3125 9.59375 Z M 8 11C7.449219 11 7 11.449219 7 12C7 12.550781 7.449219 13 8 13C8.550781 13 9 12.550781 9 12C9 11.449219 8.550781 11 8 11 Z M 16 11C12.699219 11 10 13.699219 10 17C10 20.300781 12.699219 23 16 23C19.300781 23 22 20.300781 22 17C22 13.699219 19.300781 11 16 11 Z M 16 13C18.222656 13 20 14.777344 20 17C20 19.222656 18.222656 21 16 21C13.777344 21 12 19.222656 12 17C12 14.777344 13.777344 13 16 13Z" fill="#FFFFFF" />
</svg>