<svg xmlns="http://www.w3.org/2000/svg" viewBox="0 0 24 24">
  <path d="M12 2 A 1.0001 1.0001 0 0 0 11.205078 2.4316406L6.6679688 9L2.0019531 9C1.3409531 9 0.86110938 9.628625 1.0371094 10.265625L3.5976562 19.53125C3.8366562 20.39825 4.6244375 21 5.5234375 21L18.476562 21C19.375563 21 20.164297 20.39825 20.404297 19.53125L22.964844 10.265625C23.139844 9.628625 22.659047 9 21.998047 9L17.337891 9L12.853516 2.4355469 A 1.0001 1.0001 0 0 0 12 2 z M 12.023438 4.765625L14.916016 9L9.0976562 9L12.023438 4.765625 z M 12 13C13.105 13 14 13.895 14 15C14 16.105 13.105 17 12 17C10.895 17 10 16.105 10 15C10 13.895 10.895 13 12 13 z" fill="#36E954" />
</svg>