<svg xmlns="http://www.w3.org/2000/svg" viewBox="0 0 32 32">
  <path d="M29 0C28.230469 0 27.457031 0.292969 26.875 0.875L16.75 11L16.71875 11.3125L16.25 14.625L16.03125 15.96875L17.375 15.75L20.6875 15.28125L21 15.25L31.125 5.125C32.285156 3.964844 32.285156 2.035156 31.125 0.875C30.542969 0.292969 29.769531 0 29 0 Z M 29 2C29.253906 2 29.519531 2.082031 29.71875 2.28125C30.105469 2.667969 30.117188 3.257813 29.75 3.65625L29.71875 3.6875L20.0625 13.375L18.40625 13.59375L18.625 11.9375L28.3125 2.28125C28.511719 2.082031 28.746094 2 29 2 Z M 11.96875 4.9375L4 8.34375L4 27.53125L12.03125 24.0625L20.03125 27.0625L28 23.65625L28 10.34375L26 12.34375L26 22.34375L21 24.46875L21 16.75L19 17.03125L19 24.5625L13 22.3125L13 7.4375L16.78125 8.875L18.34375 7.3125 Z M 11 7.5L11 22.34375L6 24.46875L6 9.65625Z" fill="#36E954" />
</svg>